<svg width="256" height="180" viewBox="0 0 356 250" fill="none" xmlns="http://www.w3.org/2000/svg">
  <g opacity=".1">
    <path d="m195.921 238.652-1.247.418-3.787 1.155a95 95 0 0 1-6.223 1.733q-1.836.504-3.992 1.047c-1.43.349-2.974.646-4.587 1.007-1.636.326-3.306.743-5.274 1.041l-2.917.48a64 64 0 0 1-3.1.446c-4.198.532-8.757.95-13.675 1.133-2.443.057-4.976.177-7.596.085-1.316-.028-2.614-.028-3.964-.085-1.367-.058-2.711-.149-4.107-.241l-2.087-.114c-.687-.063-1.396-.154-2.082-.217l-4.324-.441c-1.447-.154-2.917-.389-4.376-.595-1.487-.211-3.008-.417-4.501-.743q-2.295-.41-4.582-.864l-4.655-1.047a68 68 0 0 1-4.736-1.218c-1.579-.452-3.186-.841-4.793-1.373a154 154 0 0 1-19.693-7.504c-1.659-.778-3.363-1.55-5.033-2.391-1.642-.892-3.335-1.784-5.005-2.676a175 175 0 0 1-5.125-3.009c-1.698-1.047-3.363-2.173-5.033-3.283a130 130 0 0 1-19.155-15.992 126 126 0 0 1-16.501-20.671 121.8 121.8 0 0 1-12.24-25.269 114.4 114.4 0 0 1-5.989-28.713c-.8-9.895-.4-19.847 1.19-29.639a127 127 0 0 1 7.985-28.45c.983-2.265 1.876-4.495 2.974-6.669.532-1.11 1.104-2.213 1.607-3.283q.91-1.602 1.756-3.214c1.167-2.174 2.476-4.118 3.7-6.143q.973-1.47 1.905-2.974 1.03-1.418 2.06-2.895A116 116 0 0 1 47.57 26.7a112 112 0 0 1 22.804-15.197 106.8 106.8 0 0 1 24.503-8.785A112.8 112.8 0 0 1 119.066 0a117.5 117.5 0 0 1 41.982 7.75 124 124 0 0 1 30.297 16.833 130 130 0 0 1 18.915 17.6l3.22 3.814.715.898q.36.447.686.893c.441.595.858 1.126 1.253 1.698 1.636 2.14 3.003 3.993 3.986 5.537 2.002 3.1 3.072 4.736 3.072 4.736l-3.369-4.496c-1.07-1.487-2.562-3.243-4.29-5.302l-1.372-1.578c-.229-.304-.469-.567-.715-.858l-.767-.841c-1.069-1.098-2.213-2.322-3.403-3.57a130 130 0 0 0-19.538-16.329A124 124 0 0 0 159.612 11.8a115 115 0 0 0-40.415-5.926c-7.424.297-15.077 1.316-22.758 3.277a100.7 100.7 0 0 0-22.764 8.82 105.2 105.2 0 0 0-20.94 14.597 110.4 110.4 0 0 0-17.313 19.687q-.933 1.36-1.876 2.71l-1.756 2.826c-1.127 1.91-2.357 3.73-3.392 5.754l-1.607 3.009c-.48 1.018-.996 2.025-1.465 3.066-1.006 2.03-1.847 4.14-2.74 6.257a121.8 121.8 0 0 0-7.39 26.573 120 120 0 0 0-1.189 27.649c.595 9.174 2.5 18.223 5.302 26.722 5.657 17.033 15.135 31.784 26.185 43.544a130 130 0 0 0 17.725 15.643c1.579 1.104 3.129 2.208 4.707 3.278l4.765 3.014q2.402 1.35 4.736 2.705c1.578.858 3.157 1.642 4.735 2.471a166 166 0 0 0 18.738 7.95c1.527.572 3.072 1.018 4.593 1.499q1.155.383 2.288.743 1.114.315 2.271.624 2.23.635 4.467 1.218 2.219.549 4.409 1.047c1.459.354 2.917.623 4.347.892 1.43.275 2.832.572 4.261.807l4.176.629 2.059.291c.675.063 1.333.155 2.019.206l3.987.452 3.877.269c2.563.206 5.062.235 7.447.303 4.822.075 9.352-.097 13.499-.429 1.041-.028 2.082-.148 3.06-.263.989-.086 1.967-.206 2.917-.297 1.944-.206 3.643-.475 5.279-.744 1.602-.24 3.192-.457 4.616-.715q2.145-.411 4.021-.743c2.528-.475 4.621-.956 6.32-1.344l3.832-.893q1.299-.326 1.276-.332" fill="#737373"/>
    <mask id="a" style="mask-type:luminance" maskUnits="userSpaceOnUse" x="0" y="75" width="122" height="175">
      <path d="M0 75.608h121.691V250H0z" fill="#fff"/>
    </mask>
    <g mask="url(#a)">
      <path d="M121.6 249.994s-.801-.051-2.288-.206a281 281 0 0 1-6.561-.857 153 153 0 0 1-23.77-5.72c-1.253-.423-2.5-.864-3.815-1.281q-1.962-.78-3.935-1.527c-2.677-.973-5.388-2.231-8.22-3.478-1.43-.629-2.82-1.401-4.29-2.088-1.43-.743-2.894-1.458-4.404-2.328-1.492-.857-3.042-1.693-4.558-2.648a544 544 0 0 1-4.53-2.894 128.7 128.7 0 0 1-33.872-33.122 118.4 118.4 0 0 1-19.126-44.654A110.4 110.4 0 0 1 .023 128.04c-.11-6.044.259-12.088 1.104-18.074a120 120 0 0 1 6.108-25.12c1.047-2.86 1.968-5.034 2.563-6.521l1.012-2.213s-.234.806-.652 2.327c-.36 1.579-.984 3.844-1.601 6.795a137.3 137.3 0 0 0-3.17 25.087c-.208 5.811-.048 11.63.481 17.422a123.6 123.6 0 0 0 3.426 19.841 126 126 0 0 0 7.413 20.94 134 134 0 0 0 11.685 20.407A143 143 0 0 0 59.4 221.042l4.14 3.008c1.373.984 2.803 1.876 4.176 2.768 1.373.956 2.705 1.733 4.015 2.534 1.344.778 2.654 1.607 3.964 2.328 2.625 1.43 5.125 2.889 7.63 4.078l3.66 1.825a402 402 0 0 1 3.547 1.601 195 195 0 0 0 22.518 8.431c2.745.801 4.879 1.407 6.314 1.819 1.465.354 2.237.56 2.237.56" fill="#737373"/>
    </g>
    <path d="m167.179 197.07-.629.172c-.377.086-1.012.269-1.75.446-1.464.269-3.586.858-6.434 1.253-.721.12-1.465.263-2.265.354l-2.534.269c-1.756.269-3.701.303-5.777.452-4.198.149-9.037.149-14.396-.36a109.2 109.2 0 0 1-36.337-10.01 156 156 0 0 1-4.736-2.442c-1.493-.892-3.043-1.705-4.502-2.677q-4.605-2.946-8.79-6.469a90 90 0 0 1-8.065-7.893 86 86 0 0 1-6.978-9.151c-4.17-6.521-7.264-13.367-9.026-20.191-1.847-6.789-2.357-13.71-2.145-20.35a80 80 0 0 1 3.1-18.686 76.6 76.6 0 0 1 6.28-15.037l.893-1.579q.48-.744.932-1.487c.297-.48.63-.984.892-1.464.36-.475.687-.915 1.013-1.396l1.91-2.688a55 55 0 0 1 1.905-2.345c.629-.744 1.16-1.527 1.784-2.173.63-.63 1.19-1.259 1.756-1.854.6-.594 1.075-1.19 1.636-1.693q.824-.72 1.55-1.401c3.935-3.512 6.32-5.005 6.32-5.005s-.12.155-.355.384c-.245.24-.657.537-1.075 1.075l-1.704 1.842c-.326.389-.71.749-1.064 1.2a57 57 0 0 0-1.138 1.425 91 91 0 0 1-1.316 1.607c-.44.538-.858 1.19-1.298 1.848q-.71.943-1.465 2.03c-.503.686-.926 1.521-1.43 2.288-.508.806-1.04 1.613-1.544 2.505a211 211 0 0 0-1.498 2.768l-.767 1.465q-.377.712-.686 1.458-.36.72-.72 1.487c-.207.532-.447 1.07-.653 1.579a81.4 81.4 0 0 0-4.472 14.596 83.5 83.5 0 0 0-1.545 17.314c.206 6.045.984 12.154 2.826 18.051.383 1.487.983 2.974 1.487 4.467.274.744.629 1.487.932 2.231.303.749.595 1.487.972 2.236l1.082 2.236c.377.715.806 1.459 1.19 2.174.21.383.388.743.594 1.138l.686 1.064c.447.721.835 1.464 1.339 2.173 1.876 2.9 3.998 5.64 6.171 8.254a81.8 81.8 0 0 0 14.803 13.47c1.315.983 2.688 1.784 3.963 2.654 1.43.829 2.86 1.693 4.29 2.499a114.3 114.3 0 0 0 17.342 7.739 121 121 0 0 0 16.29 4.472c5.09 1.013 9.746 1.545 13.795 1.905 2.06.092 3.964.303 5.686.269q1.297.057 2.505.057c.778.034 1.521-.028 2.231-.028 2.859 0 5.004-.229 6.497-.269.772-.058 1.43-.149 1.819-.172z" fill="#737373"/>
    <path d="m124.614 232.486-.864-.091a46 46 0 0 1-2.533-.326l-4.119-.658c-1.601-.235-3.488-.658-5.565-1.07a62 62 0 0 1-3.311-.778 149 149 0 0 1-3.632-.892c-1.247-.326-2.563-.743-3.935-1.132-1.339-.424-2.769-.801-4.193-1.344a132 132 0 0 1-19.247-8.099 114.4 114.4 0 0 1-21.54-14.271 114.4 114.4 0 0 1-20.253-22.038c-1.579-2.15-2.951-4.478-4.416-6.795a138 138 0 0 1-2.019-3.603l-1.018-1.819-.92-1.905a103 103 0 0 1-6.378-16.032 268 268 0 0 0-1.218-4.261l-.99-4.381c-.354-1.453-.56-2.952-.823-4.439-.126-.737-.275-1.487-.36-2.23l-.27-2.237a104.7 104.7 0 0 1-.652-18.348 116.4 116.4 0 0 1 2.317-18.08c1.19-5.874 2.951-11.53 4.976-16.953.978-2.745 2.173-5.365 3.334-7.956 1.282-2.562 2.506-5.125 3.936-7.533.36-.63.709-1.224 1.04-1.847.39-.567.744-1.167 1.105-1.733l2.23-3.455 1.104-1.7q.624-.801 1.195-1.601c.801-1.076 1.602-2.18 2.408-3.22a103 103 0 0 1 21.838-21.032 94.55 94.55 0 0 1 44.688-16.89l4.552-.383c1.493-.091 2.9-.091 4.262-.12 2.711-.154 5.159.051 7.361.149l1.601.057c.544.028 1.053.12 1.527.149.984.114 1.876.206 2.746.32l2.316.274q1.07.155 1.905.332c2.265.378 3.489.624 3.489.624l-3.512-.275c-.601-.023-1.224-.086-1.945-.154q-1.07 0-2.316-.023c-.869 0-1.756-.029-2.717-.029-.503 0-.984-.029-1.521-.029l-1.573.092c-2.174.092-4.622.149-7.247.47-1.333.153-2.705.274-4.13.48-1.407.24-2.899.503-4.409.772a103 103 0 0 0-19.996 6.045 95 95 0 0 0-21.563 12.847 100.7 100.7 0 0 0-19.544 20.67 115 115 0 0 0-8.077 12.967c-1.246 2.288-2.316 4.696-3.454 7.087-1.013 2.47-2.06 4.941-2.917 7.47a111 111 0 0 0-4.382 15.849 120 120 0 0 0-2.081 16.775c-.304 5.72-.092 11.382.537 16.948l.206 2.087.326 2.059c.246 1.367.389 2.74.687 4.073.303 1.372.566 2.717.84 4.061l1.064 3.923c1.487 5.217 3.283 10.284 5.514 14.986l.8 1.796q.458.858.87 1.721c.63 1.161 1.19 2.288 1.785 3.432 1.28 2.197 2.505 4.404 3.906 6.481a114 114 0 0 0 8.637 11.713c1.55 1.785 3.071 3.581 4.678 5.188q1.19 1.259 2.38 2.471l2.42 2.328a116.7 116.7 0 0 0 19.75 14.945c5.8 3.537 11.85 6.647 18.102 9.306 1.372.618 2.745 1.127 4.026 1.659 1.316.48 2.563 1.018 3.752 1.435q1.832.63 3.489 1.219a83 83 0 0 0 3.186 1.041c2.059.6 3.844 1.218 5.417 1.607q2.38.629 3.992 1.075c1.11.303 1.939.481 2.482.595z" fill="#737373"/>
    <path d="m245.196 209.608-.801.503c-.504.361-1.316.841-2.328 1.488-1.012.629-2.265 1.464-3.781 2.385l-5.302 3.1a364 364 0 0 1-6.761 3.717l-3.935 2.031q-1.035.498-2.116 1.047-1.082.52-2.202 1.035a189 189 0 0 1-21.031 8.556c-.984.321-1.991.687-3.037 1.007-1.013.36-2.088.658-3.157.99-2.117.589-4.29 1.304-6.561 1.841-2.265.532-4.518 1.196-6.909 1.676-1.19.229-2.38.504-3.604.744-.594.114-1.189.263-1.818.377-.624.092-1.282.212-1.905.303a139.6 139.6 0 0 1-32.974 1.642 152.7 152.7 0 0 1-35.633-6.652 160 160 0 0 1-18.017-6.938c-2.974-1.43-5.96-2.86-8.877-4.518l-2.213-1.224c-.744-.418-1.448-.898-2.197-1.345-1.464-.898-2.98-1.75-4.387-2.774-11.588-7.624-21.414-17.13-29.399-27.528a114.4 114.4 0 0 1-10.421-16.324l-1.07-2.111c-.4-.686-.726-1.401-1.052-2.116l-1.927-4.29c-.607-1.43-1.139-2.888-1.705-4.347a62 62 0 0 1-1.487-4.347 90 90 0 0 1-.715-2.179l-.326-1.069-.309-1.104q-.555-2.196-1.127-4.347c-.36-1.464-.595-2.923-.892-4.347a65 65 0 0 1-.418-2.151l-.331-2.173q-.607-4.2-.915-8.431c-.092-1.373-.12-2.745-.183-4.118l-.092-2.048.034-2.002c.01-5.129.366-10.252 1.064-15.334.4-2.442.687-4.827 1.224-7.121.24-1.132.458-2.288.72-3.397q.39-1.659.836-3.306a114.4 114.4 0 0 1 8.465-22.576l2.408-4.558 2.442-4.118c1.607-2.557 3.186-4.793 4.588-6.853 2.974-3.963 5.365-6.966 7.178-8.876l2.688-2.952s-.84 1.11-2.39 3.192c-1.642 2.059-3.753 5.245-6.378 9.38-1.19 2.15-2.563 4.473-3.964 7.092a438 438 0 0 0-2.082 4.199 338 338 0 0 0-2.02 4.621 116.7 116.7 0 0 0-6.765 22.433l-.63 3.214c-.177 1.07-.326 2.208-.474 3.312-.355 2.23-.538 4.518-.772 6.88-.42 4.873-.51 9.769-.27 14.654l.058 1.91.183 1.934c.12 1.281.172 2.562.355 3.866.331 2.625.657 5.251 1.224 7.933l.354 1.991.475 2.002c.326 1.338.63 2.705 1.012 4.043a187 187 0 0 0 1.19 4.027l.309 1.007.349 1.018.715 1.996c.503 1.344.955 2.705 1.55 4.021q.84 1.973 1.733 3.992a221 221 0 0 0 1.904 3.93c.298.686.658 1.344 1.013 1.967.354.658.709 1.281 1.07 1.939a111.5 111.5 0 0 0 10.066 15.014 120.1 120.1 0 0 0 27.643 25.413c1.344.915 2.717 1.75 4.09 2.591l2.059 1.252 2.053 1.127c2.745 1.579 5.565 2.951 8.334 4.324a153 153 0 0 0 16.953 6.818 155.4 155.4 0 0 0 33.688 7.264 142 142 0 0 0 31.521-.229 189 189 0 0 0 26.602-5.251 212 212 0 0 0 21.209-6.938 80 80 0 0 0 2.265-.84c.743-.321 1.464-.59 2.15-.887q2.106-.875 4.078-1.67l7.001-3.123 5.508-2.625c1.579-.744 2.917-1.459 3.998-2.002a192 192 0 0 1 2.471-1.219q.409-.231.83-.44" fill="#737373"/>
    <path d="M272.427 149.008s-.248.237-.744.687a117 117 0 0 1-2.236 2.03c-1.013.858-2.231 1.968-3.661 3.249a519 519 0 0 0-5.062 4.318c-7.687 6.372-18.954 15.403-33.814 24.549a206 206 0 0 1-25.052 13.132c-4.622 1.933-9.443 3.901-14.54 5.514a160 160 0 0 1-15.82 4.29q-2.06.4-4.141.835c-1.373.263-2.677.417-4.044.652-1.35.24-2.717.331-4.118.503-.686.063-1.373.155-2.059.217q-1.064.075-2.116.115a109 109 0 0 1-17.422-.24 121.3 121.3 0 0 1-35.748-8.877 309 309 0 0 1-4.29-1.905l-4.175-2.059a551 551 0 0 1-4.044-2.231c-1.316-.772-2.534-1.584-3.815-2.35a89 89 0 0 1-13.67-10.908 84.1 84.1 0 0 1-18.646-26.63 80 80 0 0 1-4.593-14.128 72 72 0 0 1-1.642-13.876q-.153-6.847.658-13.195a103 103 0 0 1 2.471-11.971c2.174-7.453 5.01-13.916 8.076-19.064 1.453-2.597 3.215-4.919 4.65-7.092q1.201-1.567 2.317-2.952l1.047-1.344q.549-.657 1.098-1.218c1.43-1.55 2.625-2.974 3.815-4.02a45 45 0 0 1 1.607-1.557c.48-.44.892-.892 1.344-1.218l2.528-2.082-2.288 2.345c-.394.36-.743.841-1.195 1.373-.418.515-.892 1.047-1.401 1.67-1.07 1.133-2.117 2.677-3.364 4.318l-.955 1.282-.892 1.43q-.972 1.47-2.002 3.07c-1.184 2.232-2.705 4.651-3.9 7.265-2.535 5.216-4.73 11.594-6.315 18.829a103 103 0 0 0-1.579 11.439 86 86 0 0 0 .12 12.366c.384 4.193 1.047 8.465 2.208 12.658 1.155 4.204 2.746 8.436 4.764 12.629a80.7 80.7 0 0 0 17.726 23.719 84.7 84.7 0 0 0 12.594 9.706c1.167.687 2.265 1.402 3.49 2.088 1.223.686 2.476 1.338 3.729 2.025q1.938.972 3.872 1.904 1.985.91 3.986 1.756a121.3 121.3 0 0 0 33.214 8.648c5.548.624 10.999.767 16.244.624a34 34 0 0 1 1.962-.057l1.933-.155c1.281-.114 2.597-.154 3.815-.332l1.876-.228c.658-.098 1.253-.126 1.939-.241q1.98-.354 3.964-.657a161 161 0 0 0 15.283-3.489c4.942-1.339 9.683-3.009 14.259-4.65a223 223 0 0 0 25.121-11.405c15.134-8.071 26.962-16.17 35.09-21.889l5.393-3.884 3.935-2.911c1.041-.778 1.876-1.373 2.408-1.791z" fill="#737373"/>
    <path d="m229.438 190.298-2.951 1.464c-1.933.858-4.765 2.288-8.517 3.872l-2.917 1.282a217 217 0 0 1-3.283 1.304c-2.259.955-4.759 1.853-7.413 2.837-5.359 1.876-11.496 3.9-18.377 5.571-3.432.8-7.035 1.635-10.816 2.287-1.876.395-3.815.63-5.776.927-2.002.36-3.907.503-5.875.721-7.893.8-16.472.652-25.412-.361a40 40 0 0 1-3.363-.452c-1.127-.183-2.265-.297-3.392-.503-2.265-.446-4.593-.806-6.886-1.373a137 137 0 0 1-13.853-3.935l-3.455-1.247a129 129 0 0 1-3.432-1.372 59 59 0 0 1-1.721-.687l-1.699-.766c-1.132-.538-2.288-.99-3.397-1.584a162 162 0 0 1-3.364-1.671c-1.132-.566-2.207-1.218-3.306-1.813l-1.67-.915-1.578-.961c-1.041-.657-2.117-1.281-3.129-2.03a97.3 97.3 0 0 1-21.449-19.504c-2.917-3.661-5.49-7.476-7.778-11.325l-1.602-2.917q-.753-1.464-1.458-2.951c-.538-.984-.927-1.968-1.345-2.975-.417-.989-.92-1.944-1.252-2.951l-1.064-2.98c-.366-.984-.635-2.002-.96-2.974l-.447-1.464c-.149-.504-.24-1.018-.355-1.487-.24-1.019-.537-1.968-.749-2.952a97 97 0 0 1-1.67-11.748 93.8 93.8 0 0 1 1.012-21.557c1.11-6.612 2.746-12.452 4.593-17.462.475-1.247.892-2.471 1.396-3.57.514-1.138.92-2.264 1.43-3.282l1.401-2.94 1.464-2.626c.921-1.67 1.699-3.186 2.528-4.375q1.161-1.888 1.968-3.129c.503-.87 1.018-1.43 1.315-1.887l.44-.624s-.17.218-.531.572c-.332.383-.892.892-1.527 1.693l-2.317 2.923c-.955 1.104-1.91 2.534-3.014 4.112-.566.801-1.127 1.636-1.756 2.5-.532.92-1.127 1.847-1.727 2.86-.63.99-1.161 2.087-1.785 3.185-.629 1.11-1.19 2.288-1.784 3.518a91.5 91.5 0 0 0-6.292 17.662 93.8 93.8 0 0 0-2.677 22.673c.092 4.118.378 8.374 1.064 12.692.155 1.104.39 2.173.606 3.249q.15.835.326 1.635c.155.567.27 1.099.412 1.642.303 1.098.532 2.202.87 3.3l1.035 3.283c.309 1.127.778 2.202 1.201 3.306.412 1.098.8 2.208 1.304 3.306q.755 1.601 1.493 3.278.806 1.6 1.659 3.248a92 92 0 0 0 8.139 12.601 97.2 97.2 0 0 0 23.118 21.597c1.133.801 2.288 1.487 3.455 2.202l1.727 1.047 1.785.984c1.19.652 2.356 1.332 3.58 1.933l3.604 1.756c1.224.595 2.47 1.104 3.695 1.641l1.813.767c.63.274 1.253.48 1.847.72 1.259.481 2.477.95 3.73 1.402l3.717 1.252c4.942 1.545 9.918 2.86 14.837 3.752 2.437.532 4.919.836 7.327 1.19 1.218.183 2.419.263 3.638.418 1.189.12 2.379.268 3.574.326 9.507.657 18.589.331 26.808-1.041 2.059-.361 4.079-.658 6.109-1.133 2.002-.446 3.987-.835 5.891-1.373 3.85-.92 7.476-2.059 10.942-3.122a181 181 0 0 0 31.395-13.945c3.575-1.933 6.252-3.661 8.105-4.736z" fill="#737373"/>
    <path d="m133.485 208.567-.806-.155a45 45 0 0 1-2.443-.503c-1.041-.269-2.345-.504-3.9-.892-1.522-.452-3.306-.841-5.274-1.436a143 143 0 0 1-14.03-5.005 117 117 0 0 1-17.216-8.968c-.744-.469-1.459-.984-2.208-1.453a17 17 0 0 0-1.098-.749l-1.07-.801-2.242-1.607q-1.075-.892-2.173-1.756-.54-.463-1.104-.898l-1.07-.955c-.715-.658-1.464-1.282-2.173-1.939-1.402-1.373-2.894-2.706-4.233-4.193-1.424-1.43-2.705-3.014-4.078-4.593a74 74 0 0 1-1.939-2.471c-.686-.806-1.281-1.675-1.905-2.528-1.28-1.704-2.385-3.546-3.546-5.37-1.07-1.876-2.202-3.752-3.157-5.743l-.743-1.493-.687-1.487-.652-1.55a11.4 11.4 0 0 1-.658-1.544c-.389-1.018-.806-2.094-1.195-3.129l-1.035-3.22a76.6 76.6 0 0 1-2.717-13.556 86.4 86.4 0 0 1 2.116-29.553 83 83 0 0 1 6.492-17.634c.538-1.103 1.138-2.144 1.704-3.22.595-1.064 1.282-2.11 1.905-3.157.63-1.064 1.218-2.14 1.939-3.094q1.064-1.476 2.059-2.952c.32-.532.71-.955 1.098-1.43l1.064-1.372c1.407-1.91 3.043-3.512 4.564-5.21 3.186-3.193 6.435-6.224 9.953-8.615q.627-.492 1.28-.95c.412-.33.893-.565 1.333-.863l2.654-1.67 2.717-1.487 1.333-.715c.452-.24.92-.423 1.401-.658.927-.412 1.819-.84 2.745-1.252l2.77-1.041c1.819-.773 3.723-1.224 5.536-1.82a74.4 74.4 0 0 1 21.392-2.527 80.7 80.7 0 0 1 18.114 2.59c.686.172 1.316.361 1.968.533.629.154 1.252.309 1.847.537q1.824.584 3.506 1.167c1.104.355 2.151.835 3.163 1.218.984.418 1.968.744 2.86 1.19q1.299.624 2.505 1.167c.778.36 1.522.686 2.174 1.07q2.007 1.064 3.391 1.818 1.34.767 2.031 1.224l.686.412-.658-.503c-.417-.332-1.012-.841-1.876-1.459l-3.185-2.179c-.595-.446-1.316-.864-2.059-1.304a62 62 0 0 1-2.414-1.464c-.835-.538-1.785-.955-2.768-1.487-.99-.48-1.997-1.07-3.101-1.55s-2.259-1.013-3.454-1.527c-.595-.298-1.224-.504-1.848-.738l-1.967-.715a80 80 0 0 0-18.618-4.29 76 76 0 0 0-23.05 1.098c-2.03.538-4.118.892-6.143 1.613-1.04.326-2.087.624-3.123.984-1.018.377-2.03.8-3.077 1.19-.503.211-1.035.389-1.544.623q-.769.356-1.522.744c-1.012.474-2.059.926-3.094 1.458q-1.487.858-3.014 1.704c-.503.298-1.013.561-1.516.893-.475.326-.984.623-1.458.99-4.027 2.459-7.745 5.679-11.405 9.076-1.733 1.82-3.586 3.58-5.188 5.606l-1.253 1.487c-.417.48-.869.99-1.218 1.521l-2.356 3.18c-.801 1.047-1.488 2.214-2.214 3.34-.71 1.133-1.476 2.266-2.133 3.432-.658 1.184-1.345 2.351-1.968 3.54l-1.784 3.661a89.2 89.2 0 0 0-7.453 48.348 79.5 79.5 0 0 0 9.443 28.393c1.138 2.145 2.47 4.112 3.73 6.103 1.372 1.904 2.676 3.815 4.135 5.605.714.892 1.4 1.784 2.179 2.625l2.202 2.528c1.578 1.579 3.037 3.192 4.678 4.616 1.522 1.527 3.186 2.831 4.736 4.204q1.248.933 2.437 1.876l1.224.921c.389.303.806.566 1.218.869l2.42 1.693a121 121 0 0 1 2.436 1.527l1.224.767 1.218.686q1.22.669 2.385 1.344a108.7 108.7 0 0 0 18.441 7.802c5.628 1.813 10.581 3.014 14.688 3.752 2.03.418 3.843.658 5.416.921 1.585.246 2.929.332 4.027.48 1.069.115 1.904.241 2.442.241.561.049.839.074.835.063" fill="#737373"/>
    <path d="M174.541 223.009s-1.11.12-3.192.389c-1.041.12-2.322.303-3.872.418q-1.138.074-2.442.205l-1.373.092a18 18 0 0 1-1.453.057c-2.002.086-4.204.212-6.623.178-1.19-.029-2.471.034-3.752-.058a143 143 0 0 1-22.97-2.562 141.8 141.8 0 0 1-45.695-17.365 110.4 110.4 0 0 1-22.22-17.88 109 109 0 0 1-9.598-11.588 109 109 0 0 1-7.973-13.246 97 97 0 0 1-5.72-14.299 87.5 87.5 0 0 1-3.191-14.631 91.5 91.5 0 0 1-.87-14.511c0-2.379.183-4.73.332-7.064.24-2.316.417-4.61.835-6.875a105.8 105.8 0 0 1 6.944-24.995l1.247-2.774q.32-.669.594-1.372l.687-1.333 1.315-2.597q.716-1.287 1.424-2.528c1.813-3.334 3.907-6.349 5.874-9.266a104.7 104.7 0 0 1 12.412-14.299l3.037-2.648q.72-.669 1.43-1.281l1.459-1.104q1.44-1.121 2.745-2.116c.864-.687 1.785-1.219 2.597-1.79 1.659-1.099 3.088-2.117 4.461-2.82 1.339-.75 2.437-1.407 3.369-1.945.915-.475 1.659-.8 2.133-1.07l.75-.36-.773.269c-.508.206-1.28.452-2.264.84q-1.47.619-3.575 1.568c-1.459.572-3.003 1.435-4.799 2.39-.892.47-1.842.922-2.797 1.522l-2.974 1.87q-.813.492-1.607 1.013c-.538.36-1.047.75-1.613 1.138q-1.619 1.2-3.37 2.47a101 101 0 0 0-14.03 13.705c-2.259 2.889-4.678 5.874-6.817 9.26q-.812 1.26-1.67 2.528c-.504.87-1.047 1.762-1.55 2.654l-.801 1.373c-.246.475-.515.915-.744 1.396q-.731 1.43-1.487 2.86a104.7 104.7 0 0 0-8.768 26.218c-.503 2.38-.8 4.862-1.19 7.321-.234 2.511-.532 5.045-.595 7.608a96 96 0 0 0 3.695 31.812 100 100 0 0 0 6.166 15.695 109.5 109.5 0 0 0 8.785 14.391 108.7 108.7 0 0 0 22.462 22.644c4.118 3.094 8.373 5.719 12.64 8.127a131.6 131.6 0 0 0 25.344 10.524 135 135 0 0 0 42.806 5.686q2.139-.132 4.141-.206c1.344-.063 2.596-.206 3.815-.309 2.47-.194 4.672-.532 6.674-.824.481-.057.984-.148 1.43-.211l1.373-.235 2.442-.48a50 50 0 0 0 3.815-.835c2.059-.504 3.135-.744 3.135-.744" fill="#737373"/>
    <path d="M275.647 166.824s-.99.687-2.837 2.002q-1.373.984-3.455 2.403a723 723 0 0 1-4.73 3.254 343 343 0 0 1-31.012 18.829c-13.407 7.144-29.971 14.534-49.132 19.241q-1.773.458-3.597.892-1.848.384-3.701.744c-2.436.538-4.97.926-7.504 1.373l-1.876.297q-.932.103-1.905.24c-1.252.12-2.499.326-3.78.418l-3.878.297c-1.281.092-2.591.092-3.901.155a130 130 0 0 1-32.322-3.066 134.4 134.4 0 0 1-32.464-11.479l-1.733-.916c-1.133-.629-2.323-1.201-3.398-1.853a185 185 0 0 0-3.243-1.939 308 308 0 0 1-3.163-2.059 120 120 0 0 1-11.525-9.048 109 109 0 0 1-9.683-10.038c-.721-.898-1.396-1.79-2.117-2.654l-1.04-1.316q-.467-.677-.956-1.338c-.629-.892-1.281-1.756-1.904-2.648l-1.728-2.711a32 32 0 0 1-1.636-2.711c-.537-.898-1.046-1.819-1.55-2.683-.48-.921-.92-1.847-1.401-2.745a28 28 0 0 0-.686-1.333c-.206-.452-.384-.892-.595-1.344l-1.19-2.677c-.423-.898-.72-1.825-1.047-2.688-.326-.887-.686-1.75-1.012-2.648l-.8-2.62a91.5 91.5 0 0 1-3.787-19.31 103 103 0 0 1-.092-15.065c.155-2.094.27-3.935.504-5.548.217-1.579.36-2.94.572-4.015l.411-2.471.155-.841-.235.806c-.183.567-.389 1.373-.686 2.443-.332 1.046-.63 2.385-.995 3.963a89 89 0 0 0-1.064 5.48 97 97 0 0 0-1.281 15.34 90.4 90.4 0 0 0 3.008 23.147q.406 1.43.864 2.86c.303.955.532 1.939.892 2.9l1.07 2.911c.183.475.366.984.572 1.459l.623 1.493 1.281 2.945 1.465 2.952q.383.767.743 1.521.401.744.835 1.453l1.693 2.98q.892 1.48 1.876 2.951c.303.515.63.984.956 1.487l1.012 1.464q1.07 1.442 2.116 2.917a114 114 0 0 0 9.855 11.228c14.568 14.482 35.456 25.321 58.695 30.394a129.7 129.7 0 0 0 34.467 2.889 114 114 0 0 0 16.352-1.939c2.648-.532 5.239-1.013 7.802-1.699l3.815-.921 3.729-1.069c19.773-5.72 36.308-14.34 49.383-22.53a280 280 0 0 0 29.668-21.472c1.676-1.372 3.163-2.625 4.444-3.66l3.158-2.78c1.727-1.487 2.625-2.294 2.625-2.294" fill="#737373"/>
    <path d="m355.573 106.797-16.93 15.638c-5.451 5.039-12.126 11.21-20.019 18.24a756 756 0 0 1-27.282 23.382 555 555 0 0 1-16.502 12.869 405 405 0 0 1-18.588 13.012c-13.116 8.62-27.798 16.93-44.156 23.628a200 200 0 0 1-25.698 8.551c-1.139.303-2.243.56-3.375.858a209 209 0 0 1-3.432.721 145 145 0 0 1-3.414.743q-1.75.32-3.484.595c-4.621.892-9.42 1.373-14.213 1.756-9.775.56-19.578.114-29.256-1.333l-3.689-.629-1.819-.326-1.842-.389q-1.842-.36-3.672-.778c-1.218-.297-2.436-.629-3.66-.915-2.437-.572-4.856-1.373-7.276-2.088-1.218-.36-2.408-.812-3.597-1.224-1.219-.417-2.42-.806-3.604-1.281-9.506-3.637-18.617-8.105-26.848-13.761a114 114 0 0 1-11.645-9.175c-1.847-1.613-3.546-3.374-5.302-5.067-1.636-1.79-3.34-3.512-4.856-5.388a97 97 0 0 1-8.54-11.565l-1.887-3.032c-.623-.995-1.155-2.059-1.727-3.077-1.19-2.059-2.14-4.164-3.158-6.28-.537-1.047-.915-2.145-1.372-3.22-.446-1.07-.95-2.116-1.276-3.22-.778-2.174-1.578-4.347-2.173-6.549a94 94 0 0 1-2.86-13.253 103 103 0 0 1-.326-26.098c.412-4.193 1.218-8.311 2.082-12.36.984-3.999 2.059-7.934 3.432-11.68a103 103 0 0 1 10.032-20.82 107 107 0 0 1 13.104-16.958A104.7 104.7 0 0 1 71.77 33.632l3.89-2.437c.663-.383 1.286-.8 1.944-1.16a49 49 0 0 1 1.968-1.048c1.28-.686 2.528-1.424 3.843-1.996l3.832-1.721c1.259-.595 2.534-1.018 3.793-1.499 1.252-.44 2.47-.95 3.689-1.304q1.865-.526 3.632-1.075c.6-.183 1.2-.326 1.756-.504.606-.12 1.195-.274 1.761-.389q1.745-.382 3.398-.777a33 33 0 0 1 1.664-.298q.807-.137 1.607-.234c1.076-.183 2.122-.326 3.129-.515 1.047-.114 2.031-.172 3.014-.292 1.934-.177 3.781-.354 5.514-.354 1.722-.03 3.363-.12 4.85-.092 3.009.114 5.566.154 7.602.412 2.059.217 3.632.309 4.673.48l1.578.27-1.578-.361c-1.013-.235-2.591-.412-4.622-.767-2.059-.36-4.61-.537-7.624-.812-1.516-.149-3.157-.114-4.879-.171-1.756-.092-3.638 0-5.605.057-.984.057-2.025.057-3.066.154-1.047.115-2.082.229-3.191.32l-1.671.184a17 17 0 0 0-1.693.228q-1.716.304-3.511.6c-.595.127-1.202.207-1.796.333l-1.842.44q-1.83.457-3.752.898c-1.281.332-2.534.772-3.844 1.19-1.315.423-2.677.772-3.97 1.344-1.332.532-2.676 1.035-4.037 1.601-1.373.532-2.689 1.219-4.09 1.888l-2.059.978q-1.043.536-2.053 1.132c-1.373.778-2.769 1.545-4.17 2.385a103 103 0 0 0-16.112 12.538 111.5 111.5 0 0 0-14.39 17.25c-1.047 1.602-2.117 3.278-3.192 4.942-.984 1.733-1.99 3.49-2.94 5.28-.904 1.841-1.91 3.626-2.717 5.536l-1.253 2.86c-.417.99-.778 1.967-1.155 2.951a113 113 0 0 0-3.998 12.206 125 125 0 0 0-2.562 13.052 108.7 108.7 0 0 0-.298 27.855c.63 4.73 1.43 9.597 2.803 14.362.6 2.379 1.401 4.73 2.207 7.115.35 1.19.858 2.328 1.305 3.489.48 1.161.892 2.385 1.43 3.512 1.046 2.288 2.087 4.621 3.305 6.823.601 1.133 1.139 2.288 1.825 3.364l1.968 3.311c2.705 4.319 5.685 8.58 9.048 12.538 1.602 2.059 3.432 3.935 5.188 5.874 1.847 1.842 3.66 3.78 5.628 5.502a114.5 114.5 0 0 0 12.486 9.987c8.877 6.165 18.491 10.936 28.627 14.802 1.252.509 2.534.927 3.815 1.373 1.281.417 2.528.892 3.809 1.281 2.597.744 5.119 1.579 7.71 2.208 1.316.291 2.597.617 3.907.949l3.872.807 1.967.411 1.939.327 3.895.629a145.3 145.3 0 0 0 31.081 1.132l3.832-.354 1.91-.183 1.882-.269q1.91-.275 3.781-.567c1.253-.171 2.442-.446 3.66-.652 1.224-.24 2.414-.474 3.638-.686q1.785-.44 3.569-.841c1.201-.257 2.391-.555 3.546-.823q1.773-.464 3.518-.956a189 189 0 0 0 26.539-9.414c16.776-7.321 31.55-16.267 44.631-25.441a355 355 0 0 0 18.4-13.859 446 446 0 0 0 16.146-13.613A703 703 0 0 0 320.5 142.66a1278 1278 0 0 0 19.093-19.241c5.124-5.36 9.151-9.501 11.862-12.298a936 936 0 0 1 4.107-4.329" fill="#737373"/>
  </g>
</svg>
