<svg width="256" height="180" viewBox="0 0 356 250" fill="none" xmlns="http://www.w3.org/2000/svg">
  <g opacity=".1">
    <path d="m160.079 11.348 1.247-.418 3.787-1.155a95 95 0 0 1 6.223-1.733q1.836-.504 3.992-1.047c1.43-.349 2.974-.646 4.587-1.007 1.636-.326 3.306-.743 5.274-1.04l2.917-.481a64 64 0 0 1 3.1-.446 154 154 0 0 1 13.675-1.133c2.443-.057 4.976-.177 7.596-.085 1.316.028 2.614.028 3.964.085 1.367.058 2.711.15 4.107.24l2.087.115c.687.063 1.396.154 2.082.217l4.324.44c1.447.155 2.917.39 4.376.596 1.487.211 3.008.417 4.501.743q2.295.41 4.582.864l4.655 1.047q2.39.525 4.736 1.218c1.579.452 3.186.84 4.793 1.373a154 154 0 0 1 19.693 7.504c1.659.778 3.363 1.55 5.033 2.39 1.642.893 3.335 1.785 5.005 2.677q2.585 1.46 5.125 3.009c1.699 1.046 3.363 2.173 5.033 3.283a130 130 0 0 1 19.155 15.992 126 126 0 0 1 16.501 20.67 121.8 121.8 0 0 1 12.24 25.27 114.4 114.4 0 0 1 5.989 28.713c.801 9.895.4 19.847-1.19 29.639a127 127 0 0 1-7.984 28.45c-.984 2.265-1.877 4.495-2.975 6.669-.532 1.109-1.104 2.213-1.607 3.283a112 112 0 0 0-1.756 3.214c-1.167 2.174-2.476 4.118-3.7 6.143q-.974 1.47-1.905 2.974-1.03 1.42-2.059 2.894a116 116 0 0 1-18.852 20.786 112 112 0 0 1-22.804 15.197 106.8 106.8 0 0 1-24.503 8.785A113 113 0 0 1 236.934 250c-14.35 0-28.581-2.625-41.982-7.75a124 124 0 0 1-30.297-16.833 130 130 0 0 1-18.915-17.599l-3.22-3.815-.715-.898q-.36-.447-.686-.893c-.441-.594-.858-1.126-1.253-1.698-1.636-2.14-3.003-3.993-3.986-5.537-2.002-3.1-3.072-4.736-3.072-4.736l3.369 4.496c1.07 1.487 2.562 3.243 4.29 5.302l1.372 1.579c.229.303.469.566.715.857l.767.841c1.069 1.098 2.213 2.322 3.403 3.569a130 130 0 0 0 19.538 16.33 124 124 0 0 0 30.126 14.985 115 115 0 0 0 40.415 5.926c7.424-.297 15.077-1.316 22.758-3.277a100.7 100.7 0 0 0 22.764-8.82 105.2 105.2 0 0 0 20.94-14.597 110.3 110.3 0 0 0 17.313-19.687 372 372 0 0 1 1.876-2.711l1.756-2.825c1.127-1.911 2.357-3.73 3.392-5.754l1.607-3.009c.481-1.018.996-2.025 1.465-3.066 1.006-2.03 1.847-4.141 2.739-6.257a121.8 121.8 0 0 0 7.39-26.573 120 120 0 0 0 1.19-27.649c-.595-9.174-2.5-18.223-5.302-26.722-5.657-17.033-15.135-31.784-26.185-43.544a130 130 0 0 0-17.725-15.643c-1.579-1.104-3.129-2.208-4.707-3.277l-4.765-3.015q-2.402-1.35-4.736-2.705c-1.578-.858-3.157-1.642-4.736-2.471a166 166 0 0 0-18.737-7.95c-1.527-.572-3.072-1.018-4.593-1.499q-1.155-.383-2.288-.743-1.115-.315-2.271-.624-2.23-.635-4.467-1.218a236 236 0 0 0-4.409-1.047c-1.459-.355-2.917-.623-4.347-.892-1.43-.275-2.832-.572-4.261-.807l-4.176-.629-2.059-.291c-.675-.063-1.333-.155-2.019-.206l-3.987-.452-3.877-.27c-2.563-.205-5.062-.234-7.447-.302-4.822-.075-9.352.097-13.499.429-1.041.028-2.082.148-3.06.263-.989.086-1.967.206-2.917.297-1.944.206-3.643.475-5.279.744-1.602.24-3.192.457-4.616.715q-2.145.411-4.021.743c-2.528.475-4.621.956-6.32 1.345l-3.832.892q-1.299.326-1.276.332" fill="#737373"/>
    <mask id="a" style="mask-type:luminance" maskUnits="userSpaceOnUse" x="234" y="0" width="122" height="175">
      <path d="M356 174.392H234.309V0H356z" fill="#fff"/>
    </mask>
    <g mask="url(#a)">
      <path d="M234.4.005s.801.052 2.288.206q2.305.264 6.561.858a153 153 0 0 1 23.77 5.72c1.253.423 2.5.864 3.815 1.281q1.962.78 3.935 1.527c2.677.973 5.388 2.231 8.22 3.478 1.43.629 2.819 1.401 4.289 2.088 1.43.743 2.895 1.458 4.404 2.327 1.493.858 3.043 1.694 4.559 2.649q2.272 1.436 4.53 2.894a128.7 128.7 0 0 1 33.872 33.122 118.4 118.4 0 0 1 19.126 44.654 110.3 110.3 0 0 1 2.208 21.151c.11 6.044-.259 12.088-1.104 18.074a120 120 0 0 1-6.108 25.121c-1.047 2.859-1.968 5.033-2.563 6.52l-1.012 2.213s.234-.806.652-2.327c.36-1.579.984-3.844 1.601-6.795a137 137 0 0 0 3.169-25.087c.209-5.811.049-11.631-.48-17.422a123.6 123.6 0 0 0-3.427-19.841 126 126 0 0 0-7.412-20.94 134 134 0 0 0-11.685-20.408 143 143 0 0 0-31.007-32.11l-4.141-3.008c-1.372-.984-2.802-1.876-4.175-2.768-1.373-.956-2.705-1.734-4.015-2.534-1.344-.778-2.654-1.607-3.964-2.328-2.625-1.43-5.125-2.889-7.63-4.078l-3.66-1.825a396 396 0 0 1-3.547-1.601 195 195 0 0 0-22.518-8.431c-2.745-.8-4.879-1.407-6.314-1.819a118 118 0 0 1-2.237-.56" fill="#737373"/>
    </g>
    <path d="m188.821 52.93.629-.172c.377-.086 1.012-.269 1.75-.446 1.464-.269 3.586-.858 6.434-1.253.721-.12 1.465-.263 2.265-.354l2.534-.27c1.756-.268 3.701-.302 5.777-.45 4.198-.15 9.037-.15 14.396.36a109.2 109.2 0 0 1 36.337 10.009q2.39 1.18 4.736 2.442c1.493.892 3.043 1.705 4.502 2.677q4.604 2.946 8.791 6.469a90 90 0 0 1 8.064 7.893 86 86 0 0 1 6.978 9.151c4.17 6.52 7.264 13.367 9.026 20.191 1.847 6.789 2.356 13.71 2.145 20.35a80 80 0 0 1-3.1 18.686 76.6 76.6 0 0 1-6.28 15.037l-.893 1.579q-.48.743-.932 1.487c-.297.48-.629.984-.892 1.464-.361.475-.687.915-1.013 1.396l-1.91 2.688a54 54 0 0 1-1.905 2.345c-.629.744-1.161 1.527-1.784 2.174-.629.629-1.19 1.258-1.756 1.853-.601.595-1.075 1.189-1.636 1.693q-.824.72-1.55 1.401c-3.935 3.512-6.32 5.005-6.32 5.005s.12-.155.355-.383c.245-.241.657-.538 1.075-1.076l1.704-1.842c.326-.388.71-.749 1.064-1.201a55 55 0 0 0 1.138-1.424q.612-.767 1.316-1.607c.44-.538.858-1.19 1.298-1.847a67 67 0 0 0 1.464-2.031c.504-.686.927-1.521 1.43-2.288.509-.806 1.041-1.613 1.545-2.505q.738-1.338 1.498-2.768l.767-1.465q.377-.713.686-1.458.36-.721.721-1.487c.206-.532.446-1.07.652-1.579a81.4 81.4 0 0 0 4.472-14.596 83.5 83.5 0 0 0 1.545-17.314c-.206-6.045-.984-12.154-2.826-18.051-.383-1.487-.984-2.974-1.487-4.467-.274-.744-.629-1.487-.932-2.231-.303-.749-.595-1.487-.972-2.236l-1.081-2.236c-.378-.715-.807-1.459-1.19-2.174-.212-.383-.389-.743-.595-1.138l-.686-1.064c-.446-.72-.835-1.464-1.339-2.173-1.876-2.9-3.998-5.64-6.171-8.254a81.8 81.8 0 0 0-14.803-13.47c-1.315-.983-2.688-1.784-3.963-2.653-1.43-.83-2.86-1.693-4.29-2.5a114 114 0 0 0-17.342-7.739 121 121 0 0 0-16.29-4.472c-5.09-1.013-9.746-1.545-13.795-1.905-2.06-.092-3.964-.303-5.686-.269a57 57 0 0 0-2.505-.057c-.778-.034-1.521.029-2.231.029-2.859 0-5.004.228-6.497.268-.772.058-1.43.149-1.819.172z" fill="#737373"/>
    <path d="m231.386 17.514.864.091q1.271.128 2.533.326l4.119.658c1.601.235 3.489.658 5.565 1.07q1.664.343 3.311.777 1.82.424 3.632.893c1.247.326 2.563.743 3.936 1.132 1.338.424 2.768.801 4.192 1.344a131.6 131.6 0 0 1 19.247 8.1 114.4 114.4 0 0 1 21.54 14.27 114.4 114.4 0 0 1 20.253 22.038c1.579 2.15 2.951 4.478 4.416 6.795q1.035 1.784 2.019 3.603l1.018 1.819.921 1.904a103 103 0 0 1 6.377 16.033q.59 2.127 1.218 4.261l.99 4.381c.354 1.453.56 2.951.823 4.438.126.738.275 1.488.361 2.231l.269 2.237c.754 6.085.972 12.225.652 18.348a116.4 116.4 0 0 1-2.317 18.08c-1.189 5.874-2.951 11.531-4.976 16.953-.978 2.745-2.173 5.365-3.334 7.956-1.282 2.562-2.506 5.125-3.936 7.533-.36.629-.709 1.224-1.041 1.847-.388.566-.743 1.167-1.103 1.733l-2.231 3.455-1.104 1.699a47 47 0 0 0-1.195 1.601c-.801 1.075-1.602 2.179-2.408 3.22a103 103 0 0 1-21.838 21.031 94.54 94.54 0 0 1-44.688 16.891l-4.552.383c-1.493.091-2.9.091-4.261.12-2.712.154-5.16-.052-7.362-.149l-1.601-.057c-.544-.029-1.053-.12-1.527-.149-.984-.114-1.876-.206-2.746-.32l-2.316-.275a29 29 0 0 1-1.905-.331c-2.265-.378-3.489-.624-3.489-.624l3.512.275c.601.023 1.224.086 1.945.154q1.07 0 2.316.023c.87 0 1.756.029 2.717.029.503 0 .984.028 1.521.028l1.573-.091c2.174-.092 4.622-.149 7.247-.469 1.333-.155 2.706-.275 4.13-.481 1.407-.24 2.9-.503 4.41-.772a103 103 0 0 0 19.995-6.045 95 95 0 0 0 21.563-12.847 100.7 100.7 0 0 0 19.545-20.671 115 115 0 0 0 8.076-12.966c1.247-2.288 2.316-4.696 3.454-7.087 1.013-2.471 2.059-4.941 2.917-7.47a111 111 0 0 0 4.382-15.849 120 120 0 0 0 2.082-16.775c.303-5.72.091-11.382-.538-16.948l-.206-2.087-.326-2.059c-.246-1.367-.389-2.74-.686-4.073-.304-1.373-.567-2.717-.841-4.061l-1.064-3.923c-1.487-5.217-3.283-10.284-5.514-14.986l-.801-1.796a44 44 0 0 1-.869-1.721c-.629-1.162-1.19-2.288-1.784-3.432-1.282-2.197-2.506-4.404-3.907-6.48a114 114 0 0 0-8.637-11.715c-1.55-1.784-3.071-3.58-4.678-5.187a185 185 0 0 0-2.38-2.471l-2.419-2.328a116.7 116.7 0 0 0-19.75-14.945 140 140 0 0 0-18.103-9.306c-1.372-.618-2.745-1.127-4.026-1.659-1.316-.48-2.563-1.018-3.752-1.436q-1.832-.63-3.489-1.218a83 83 0 0 0-3.186-1.04c-2.059-.601-3.844-1.22-5.417-1.608q-2.38-.63-3.992-1.075a41 41 0 0 0-2.482-.595z" fill="#737373"/>
    <path d="m110.804 40.392.801-.503c.504-.36 1.316-.841 2.328-1.487 1.012-.63 2.265-1.465 3.781-2.386l5.302-3.1q3.026-1.71 6.761-3.717l3.935-2.03q1.035-.498 2.116-1.047a136 136 0 0 1 2.202-1.036 189 189 0 0 1 21.031-8.556c.984-.32 1.991-.687 3.037-1.007 1.013-.36 2.088-.658 3.157-.99 2.117-.589 4.29-1.304 6.561-1.841 2.265-.532 4.518-1.196 6.909-1.676 1.19-.229 2.38-.503 3.604-.744.594-.114 1.189-.263 1.818-.377.624-.092 1.282-.212 1.905-.303a139.6 139.6 0 0 1 32.974-1.642c12.1.795 24.062 3.028 35.633 6.652a160 160 0 0 1 18.017 6.938c2.974 1.43 5.96 2.86 8.877 4.519l2.214 1.224c.743.417 1.447.898 2.196 1.344 1.464.898 2.98 1.75 4.387 2.774 11.588 7.624 21.414 17.13 29.399 27.528a114.4 114.4 0 0 1 10.421 16.324l1.07 2.11c.4.687.726 1.402 1.052 2.117l1.928 4.29c.606 1.43 1.138 2.888 1.704 4.347a62 62 0 0 1 1.487 4.347q.372 1.085.715 2.179l.326 1.07.309 1.103q.555 2.197 1.127 4.347c.36 1.464.595 2.923.892 4.347a67 67 0 0 1 .418 2.151l.331 2.173q.607 4.2.915 8.431c.092 1.373.121 2.745.183 4.118l.092 2.048-.034 2.002a114.5 114.5 0 0 1-1.064 15.334c-.401 2.442-.687 4.827-1.224 7.121-.24 1.132-.458 2.288-.721 3.397a100 100 0 0 1-.835 3.306 114.4 114.4 0 0 1-8.465 22.576l-2.408 4.558-2.442 4.119c-1.608 2.556-3.186 4.793-4.587 6.852-2.975 3.963-5.366 6.966-7.179 8.877l-2.688 2.951s.841-1.11 2.391-3.192c1.641-2.059 3.752-5.245 6.377-9.38 1.19-2.15 2.563-4.473 3.964-7.092a441 441 0 0 0 2.082-4.198 326 326 0 0 0 2.019-4.622 116.7 116.7 0 0 0 6.766-22.432l.63-3.215c.177-1.069.326-2.208.474-3.311.355-2.231.538-4.519.772-6.881.42-4.873.51-9.769.269-14.654l-.057-1.91-.183-1.934c-.12-1.281-.172-2.562-.355-3.866-.331-2.625-.657-5.251-1.224-7.933l-.354-1.991-.475-2.002c-.326-1.338-.629-2.705-1.012-4.043a189 189 0 0 0-1.19-4.027l-.309-1.007-.349-1.018-.715-1.996c-.503-1.344-.955-2.705-1.55-4.02a316 316 0 0 0-1.733-3.993 217 217 0 0 0-1.904-3.93 21 21 0 0 0-1.013-1.967c-.354-.658-.709-1.281-1.069-1.939a111.6 111.6 0 0 0-10.067-15.014 120.1 120.1 0 0 0-27.643-25.412c-1.344-.916-2.717-1.75-4.09-2.591l-2.059-1.253-2.053-1.127c-2.745-1.578-5.565-2.951-8.334-4.324a153 153 0 0 0-16.953-6.818 155.3 155.3 0 0 0-33.688-7.264 142 142 0 0 0-31.521.23 189 189 0 0 0-26.602 5.25 212 212 0 0 0-21.209 6.938q-1.161.412-2.265.84c-.743.32-1.464.59-2.15.887q-2.106.875-4.078 1.67l-7.001 3.123-5.508 2.625c-1.579.744-2.917 1.459-3.998 2.002q-1.614.807-2.471 1.219-.409.23-.83.44" fill="#737373"/>
    <path d="M83.573 100.992s.248-.237.744-.687q.772-.725 2.236-2.03c1.013-.858 2.23-1.968 3.66-3.249a509 509 0 0 0 5.063-4.318c7.687-6.372 18.955-15.403 33.814-24.549a206 206 0 0 1 25.052-13.132c4.622-1.933 9.443-3.901 14.54-5.514q7.801-2.55 15.82-4.29 2.06-.4 4.141-.835c1.373-.263 2.677-.417 4.044-.652 1.35-.24 2.717-.331 4.118-.503.686-.063 1.373-.154 2.059-.217q1.064-.075 2.116-.115a109 109 0 0 1 17.422.24 121.3 121.3 0 0 1 35.748 8.877q2.145.933 4.29 1.905l4.175 2.059q2.043 1.116 4.044 2.23c1.316.773 2.534 1.585 3.815 2.351a89 89 0 0 1 13.67 10.908A84.1 84.1 0 0 1 302.79 96.1a80 80 0 0 1 4.593 14.128 72 72 0 0 1 1.642 13.876q.153 6.847-.658 13.195a103 103 0 0 1-2.471 11.971c-2.174 7.453-5.011 13.916-8.076 19.064-1.453 2.597-3.215 4.919-4.65 7.092a154 154 0 0 1-2.317 2.952l-1.046 1.344a21 21 0 0 1-1.099 1.218c-1.43 1.55-2.625 2.974-3.815 4.021a45 45 0 0 1-1.607 1.556c-.48.44-.892.892-1.344 1.218l-2.528 2.082 2.288-2.345c.394-.361.743-.841 1.195-1.373.418-.515.892-1.047 1.401-1.67 1.07-1.133 2.117-2.677 3.364-4.318l.955-1.282.892-1.429q.972-1.47 2.002-3.072c1.184-2.231 2.705-4.65 3.901-7.264 2.534-5.216 4.73-11.594 6.314-18.829.74-3.781 1.267-7.6 1.579-11.439.257-4.12.217-8.252-.12-12.366-.383-4.193-1.047-8.465-2.208-12.658-1.155-4.204-2.745-8.436-4.764-12.629a80.7 80.7 0 0 0-17.726-23.719 84.6 84.6 0 0 0-12.594-9.706c-1.167-.687-2.265-1.402-3.489-2.088s-2.477-1.338-3.73-2.025a274 274 0 0 0-3.872-1.904 148 148 0 0 0-3.986-1.756 121.3 121.3 0 0 0-33.214-8.648c-5.548-.624-10.999-.767-16.244-.624q-.972.057-1.962.057l-1.933.155c-1.281.114-2.597.154-3.815.331l-1.876.23c-.658.097-1.253.125-1.939.24q-1.98.354-3.964.657a161 161 0 0 0-15.283 3.49c-4.942 1.338-9.683 3.008-14.259 4.65a223 223 0 0 0-25.121 11.404c-15.134 8.07-26.962 16.17-35.09 21.89l-5.393 3.883-3.935 2.911c-1.041.778-1.876 1.373-2.408 1.791z" fill="#737373"/>
    <path d="m126.562 59.702 2.951-1.464c1.933-.858 4.765-2.288 8.517-3.872l2.917-1.282q1.544-.629 3.283-1.304c2.259-.955 4.759-1.853 7.413-2.837 5.359-1.876 11.496-3.9 18.377-5.57 3.432-.801 7.035-1.636 10.816-2.288 1.876-.395 3.815-.63 5.776-.927 2.002-.36 3.907-.503 5.875-.72 7.893-.801 16.472-.653 25.412.36q1.691.154 3.363.451c1.127.184 2.265.298 3.392.504 2.265.446 4.593.806 6.886 1.373a137 137 0 0 1 13.853 3.935l3.455 1.247q1.716.658 3.432 1.372.866.33 1.721.687l1.699.766c1.133.538 2.288.99 3.398 1.584q1.69.816 3.363 1.67c1.132.567 2.207 1.219 3.306 1.814l1.67.915 1.578.96c1.041.658 2.117 1.282 3.129 2.031a97.2 97.2 0 0 1 21.449 19.504c2.917 3.66 5.491 7.476 7.778 11.325l1.602 2.917q.753 1.464 1.458 2.952c.538.983.927 1.967 1.345 2.974.417.99.92 1.944 1.252 2.951l1.064 2.98c.366.984.635 2.002.961 2.974l.446 1.464c.149.504.24 1.018.355 1.487.24 1.019.537 1.968.749 2.952a97 97 0 0 1 1.67 11.748 93.8 93.8 0 0 1-1.012 21.557c-1.11 6.612-2.746 12.452-4.593 17.462-.475 1.247-.892 2.471-1.396 3.569-.515 1.139-.921 2.265-1.43 3.284l-1.401 2.939-1.464 2.626c-.921 1.67-1.699 3.186-2.528 4.375a152 152 0 0 1-1.968 3.129c-.503.869-1.018 1.43-1.315 1.887l-.441.624s.172-.217.532-.572c.332-.383.892-.892 1.527-1.693l2.317-2.923c.955-1.104 1.91-2.534 3.014-4.112.566-.801 1.127-1.636 1.756-2.5.532-.921 1.127-1.847 1.727-2.86.629-.989 1.161-2.087 1.785-3.185.629-1.11 1.189-2.288 1.784-3.518a91.5 91.5 0 0 0 6.292-17.662 93.8 93.8 0 0 0 2.677-22.673c-.092-4.118-.378-8.374-1.064-12.692-.155-1.104-.389-2.173-.606-3.249a42 42 0 0 0-.326-1.635c-.155-.567-.269-1.099-.412-1.642-.303-1.098-.532-2.202-.87-3.3l-1.035-3.283c-.309-1.127-.778-2.202-1.201-3.306-.412-1.098-.801-2.208-1.304-3.306a141 141 0 0 1-1.493-3.278 324 324 0 0 0-1.659-3.248 92 92 0 0 0-8.139-12.6 97.2 97.2 0 0 0-23.118-21.598c-1.133-.8-2.288-1.487-3.455-2.202l-1.727-1.047-1.785-.984c-1.19-.652-2.357-1.332-3.581-1.933l-3.603-1.756c-1.224-.595-2.471-1.104-3.695-1.641l-1.813-.767c-.629-.274-1.253-.48-1.847-.72-1.259-.48-2.477-.95-3.73-1.402l-3.717-1.252c-4.942-1.545-9.918-2.86-14.837-3.752-2.437-.532-4.919-.836-7.327-1.19-1.218-.183-2.419-.263-3.638-.418-1.189-.12-2.379-.268-3.574-.326-9.507-.657-18.589-.331-26.808 1.041-2.06.36-4.079.658-6.109 1.133-2.002.446-3.987.835-5.891 1.373-3.85.92-7.476 2.059-10.942 3.122a181 181 0 0 0-31.395 13.945c-3.575 1.933-6.252 3.66-8.105 4.736z" fill="#737373"/>
    <path d="m222.515 41.434.806.154q1.228.218 2.443.503c1.041.269 2.345.504 3.9.892 1.522.452 3.306.841 5.274 1.436a143 143 0 0 1 14.03 5.005 117 117 0 0 1 17.216 8.968c.744.47 1.459.984 2.208 1.453q.535.396 1.098.75l1.07.8 2.242 1.607q1.075.892 2.173 1.756.542.463 1.104.898l1.07.955c.715.658 1.464 1.282 2.173 1.94 1.402 1.372 2.894 2.705 4.233 4.192 1.424 1.43 2.705 3.014 4.078 4.593a74 74 0 0 1 1.939 2.47c.686.807 1.281 1.676 1.905 2.529 1.281 1.704 2.385 3.546 3.546 5.37 1.069 1.877 2.202 3.752 3.157 5.743l.744 1.493.686 1.487.652 1.55q.386.748.658 1.544c.389 1.018.806 2.094 1.195 3.129l1.035 3.22a76.6 76.6 0 0 1 2.717 13.556 86.4 86.4 0 0 1-2.116 29.553 83 83 0 0 1-6.492 17.634c-.538 1.104-1.138 2.144-1.704 3.22-.595 1.064-1.282 2.11-1.905 3.157-.629 1.064-1.218 2.139-1.939 3.094a115 115 0 0 0-2.059 2.952c-.32.532-.709.955-1.098 1.43l-1.064 1.372c-1.407 1.911-3.043 3.512-4.564 5.211-3.186 3.191-6.435 6.223-9.952 8.614q-.628.493-1.282.949c-.412.332-.892.566-1.332.864l-2.654 1.67-2.717 1.487-1.333.715c-.452.24-.921.423-1.401.658-.927.412-1.819.841-2.746 1.252l-2.768 1.041c-1.819.773-3.723 1.224-5.536 1.819a74.4 74.4 0 0 1-21.392 2.528 80.7 80.7 0 0 1-18.114-2.591c-.686-.171-1.316-.36-1.968-.532-.629-.154-1.252-.308-1.847-.537a152 152 0 0 1-3.506-1.167c-1.104-.355-2.151-.835-3.163-1.218-.984-.418-1.968-.744-2.86-1.19q-1.299-.624-2.505-1.167c-.778-.36-1.522-.686-2.174-1.069a344 344 0 0 1-3.391-1.819 39 39 0 0 1-2.031-1.224l-.686-.412.658.503c.417.332 1.012.841 1.876 1.459l3.185 2.179c.595.446 1.316.864 2.059 1.304q1.224.705 2.414 1.464c.835.538 1.785.955 2.768 1.487.99.481 1.997 1.07 3.101 1.55 1.103.481 2.259 1.013 3.454 1.528.595.297 1.224.503 1.848.737l1.967.715a80 80 0 0 0 18.618 4.29 76 76 0 0 0 23.05-1.098c2.03-.538 4.118-.892 6.143-1.613 1.041-.326 2.087-.624 3.123-.984 1.018-.377 2.03-.801 3.077-1.19.503-.211 1.035-.388 1.544-.623q.769-.355 1.522-.744c1.012-.474 2.059-.926 3.094-1.458a197 197 0 0 1 3.014-1.704c.503-.298 1.012-.561 1.516-.893.475-.326.984-.623 1.458-.989 4.027-2.46 7.745-5.68 11.405-9.077 1.733-1.819 3.587-3.581 5.188-5.606l1.253-1.487c.417-.48.869-.989 1.218-1.521l2.356-3.18c.801-1.047 1.488-2.214 2.214-3.341.709-1.132 1.476-2.264 2.133-3.431.658-1.184 1.344-2.351 1.968-3.541l1.784-3.66a89.2 89.2 0 0 0 7.453-48.348 79.5 79.5 0 0 0-9.443-28.393c-1.138-2.145-2.471-4.112-3.729-6.103-1.373-1.904-2.677-3.815-4.136-5.605-.714-.892-1.401-1.784-2.179-2.625l-2.202-2.528c-1.578-1.579-3.037-3.192-4.678-4.616-1.522-1.527-3.186-2.831-4.736-4.204a106 106 0 0 1-2.437-1.876l-1.224-.92c-.389-.304-.806-.567-1.218-.87l-2.42-1.693a118 118 0 0 1-2.436-1.527l-1.224-.767-1.218-.686a122 122 0 0 1-2.386-1.344 108.7 108.7 0 0 0-18.44-7.802c-5.628-1.813-10.581-3.014-14.688-3.752-2.03-.418-3.843-.658-5.416-.92-1.585-.247-2.929-.333-4.027-.481-1.069-.115-1.904-.24-2.442-.24-.561-.05-.839-.075-.835-.063" fill="#737373"/>
    <path d="M181.459 26.991s1.11-.12 3.192-.389c1.041-.12 2.322-.303 3.872-.418q1.138-.075 2.442-.205l1.373-.092q.703-.057 1.453-.057c2.002-.086 4.204-.212 6.623-.177 1.19.028 2.471-.035 3.752.057 7.714.233 15.395 1.09 22.97 2.562a141.9 141.9 0 0 1 45.695 17.365 110.4 110.4 0 0 1 22.221 17.88 109 109 0 0 1 9.597 11.588 109 109 0 0 1 7.973 13.246 97 97 0 0 1 5.72 14.299 87.4 87.4 0 0 1 3.191 14.631c.675 4.807.965 9.659.87 14.511 0 2.379-.183 4.73-.332 7.064-.24 2.316-.417 4.61-.835 6.875a105.8 105.8 0 0 1-6.944 24.995l-1.246 2.774q-.32.669-.595 1.372l-.687 1.333-1.315 2.597q-.716 1.287-1.424 2.528c-1.814 3.334-3.907 6.349-5.874 9.266a104.7 104.7 0 0 1-12.412 14.299l-3.037 2.648q-.721.669-1.43 1.281l-1.459 1.104q-1.442 1.122-2.745 2.116c-.864.687-1.785 1.219-2.597 1.791-1.658 1.098-3.088 2.116-4.461 2.819-1.339.75-2.437 1.407-3.369 1.945-.915.475-1.659.801-2.133 1.07l-.75.36.772-.269c.51-.206 1.282-.452 2.265-.841q1.47-.617 3.575-1.567c1.459-.572 3.003-1.435 4.799-2.391.892-.469 1.842-.92 2.797-1.521l2.974-1.87a50 50 0 0 0 1.607-1.013c.538-.36 1.047-.749 1.613-1.138a389 389 0 0 1 3.369-2.471 101.3 101.3 0 0 0 14.03-13.704c2.26-2.888 4.679-5.874 6.818-9.26q.812-1.259 1.67-2.528c.504-.87 1.047-1.762 1.55-2.654l.801-1.373c.246-.475.515-.915.744-1.395q.732-1.43 1.487-2.86a104.7 104.7 0 0 0 8.768-26.219c.503-2.38.801-4.862 1.19-7.321.234-2.511.532-5.045.595-7.607a96 96 0 0 0-3.695-31.813 100 100 0 0 0-6.166-15.695 109.5 109.5 0 0 0-8.785-14.39 108.7 108.7 0 0 0-22.461-22.645c-4.119-3.094-8.374-5.72-12.641-8.127a131.6 131.6 0 0 0-25.344-10.524 135 135 0 0 0-42.806-5.686q-2.139.132-4.141.206c-1.344.063-2.596.206-3.815.31-2.47.194-4.672.531-6.674.823-.481.057-.984.148-1.43.211l-1.373.235-2.442.48a50 50 0 0 0-3.815.835c-2.059.504-3.135.744-3.135.744" fill="#737373"/>
    <path d="M80.353 83.175s.99-.686 2.837-2.001q1.373-.984 3.455-2.403 2.059-1.43 4.73-3.254a343 343 0 0 1 31.012-18.83c13.407-7.143 29.971-14.533 49.132-19.24q1.773-.458 3.597-.893 1.848-.383 3.701-.743c2.436-.538 4.97-.927 7.504-1.373l1.876-.297a64 64 0 0 0 1.905-.24c1.252-.12 2.499-.326 3.78-.418l3.878-.297c1.281-.092 2.591-.092 3.901-.155 10.86-.334 21.719.696 32.322 3.066a134.4 134.4 0 0 1 32.464 11.48l1.734.914c1.132.63 2.322 1.202 3.397 1.854q1.611.985 3.243 1.939 1.602 1.029 3.163 2.059c4.022 2.778 7.871 5.8 11.525 9.048a109 109 0 0 1 9.683 10.038c.721.898 1.396 1.79 2.117 2.654l1.041 1.316q.465.677.955 1.338c.629.892 1.281 1.756 1.905 2.648l1.727 2.711q.886 1.316 1.636 2.711c.537.898 1.046 1.82 1.55 2.683.48.92.921 1.847 1.401 2.745q.326.675.686 1.333c.206.452.384.892.595 1.344l1.19 2.677c.423.898.721 1.825 1.047 2.688.326.887.686 1.75 1.012 2.648l.801 2.62a91.5 91.5 0 0 1 3.786 19.309c.399 5.013.429 10.049.092 15.066-.155 2.093-.269 3.935-.504 5.548-.217 1.579-.36 2.94-.572 4.015l-.411 2.471-.155.841.235-.807c.183-.566.389-1.372.686-2.442.332-1.047.629-2.385.995-3.964a89 89 0 0 0 1.064-5.479 97 97 0 0 0 1.281-15.34 90.4 90.4 0 0 0-3.008-23.147 91 91 0 0 0-.864-2.86c-.303-.956-.532-1.94-.892-2.9l-1.07-2.911c-.183-.475-.366-.984-.572-1.459l-.623-1.493-1.281-2.945-1.465-2.952a94 94 0 0 1-.743-1.521q-.4-.744-.835-1.453l-1.693-2.98a73 73 0 0 0-1.876-2.951c-.303-.515-.629-.984-.956-1.487l-1.012-1.465q-1.07-1.44-2.116-2.917a114 114 0 0 0-9.855-11.227c-14.568-14.482-35.456-25.321-58.695-30.394a129.7 129.7 0 0 0-34.467-2.889 114 114 0 0 0-16.352 1.94c-2.648.531-5.239 1.011-7.802 1.698l-3.815.92-3.729 1.07c-19.773 5.72-36.308 14.34-49.383 22.53A280 280 0 0 0 90.58 74.442c-1.676 1.372-3.163 2.625-4.444 3.66l-3.158 2.78c-1.727 1.487-2.625 2.293-2.625 2.293" fill="#737373"/>
    <path d="m.427 143.203 16.93-15.638c5.45-5.039 12.126-11.21 20.019-18.24a755 755 0 0 1 27.282-23.382A555 555 0 0 1 81.16 73.074a406 406 0 0 1 18.59-13.012c13.115-8.62 27.797-16.93 44.155-23.628a200 200 0 0 1 25.698-8.55c1.139-.304 2.243-.561 3.375-.859q1.698-.372 3.432-.72a140 140 0 0 1 3.414-.744q1.75-.32 3.484-.595c4.621-.892 9.42-1.373 14.213-1.756 9.775-.56 19.578-.114 29.256 1.333l3.689.629 1.819.326 1.842.389q1.842.36 3.672.778c1.218.297 2.436.629 3.66.915 2.437.572 4.856 1.373 7.276 2.088 1.218.36 2.408.812 3.597 1.224 1.219.417 2.42.806 3.604 1.28 9.506 3.639 18.617 8.106 26.848 13.762a114 114 0 0 1 11.645 9.175c1.847 1.612 3.546 3.374 5.302 5.067 1.636 1.79 3.34 3.512 4.856 5.388a97 97 0 0 1 8.54 11.565l1.887 3.032c.623.995 1.155 2.059 1.727 3.077 1.19 2.059 2.139 4.164 3.158 6.28.537 1.047.915 2.145 1.372 3.22.446 1.07.95 2.116 1.276 3.22.778 2.174 1.578 4.347 2.173 6.549a94 94 0 0 1 2.86 13.253c1.216 8.65 1.325 17.42.326 26.098-.412 4.193-1.218 8.311-2.082 12.361-.984 3.998-2.059 7.933-3.432 11.679a103 103 0 0 1-10.032 20.82 107 107 0 0 1-13.104 16.958 104.6 104.6 0 0 1-15.025 12.692l-3.89 2.437c-.663.383-1.286.801-1.944 1.161a49 49 0 0 1-1.968 1.047c-1.281.686-2.528 1.424-3.843 1.996l-3.833 1.721c-1.258.595-2.533 1.018-3.792 1.499-1.252.44-2.471.949-3.689 1.304q-1.865.526-3.632 1.075c-.6.183-1.201.326-1.756.504-.606.12-1.195.274-1.761.389q-1.745.383-3.398.777a32 32 0 0 1-1.664.298q-.807.137-1.607.234c-1.076.183-2.122.326-3.129.515-1.047.115-2.031.172-3.014.292-1.934.177-3.781.354-5.514.354-1.722.029-3.363.121-4.85.092-3.009-.114-5.566-.154-7.602-.412-2.059-.217-3.632-.309-4.673-.48l-1.578-.269 1.578.36c1.013.235 2.591.412 4.622.767 2.059.36 4.61.537 7.624.812 1.516.149 3.157.114 4.879.171 1.756.092 3.638 0 5.605-.057.984-.057 2.025-.057 3.066-.154 1.047-.115 2.082-.229 3.191-.32l1.671-.184a17 17 0 0 0 1.693-.228 328 328 0 0 1 3.511-.601c.595-.126 1.202-.206 1.796-.332l1.842-.44q1.83-.457 3.752-.898c1.281-.332 2.534-.772 3.844-1.19 1.315-.423 2.677-.772 3.969-1.344 1.333-.532 2.677-1.035 4.038-1.601 1.373-.532 2.689-1.219 4.09-1.888l2.059-.978q1.043-.536 2.053-1.132c1.373-.778 2.769-1.545 4.17-2.385a103 103 0 0 0 16.112-12.538 111.6 111.6 0 0 0 14.391-17.25c1.047-1.602 2.116-3.278 3.191-4.942.984-1.733 1.991-3.489 2.94-5.279.904-1.842 1.911-3.627 2.717-5.537l1.253-2.86c.417-.989.778-1.967 1.155-2.951a113 113 0 0 0 3.998-12.206 125 125 0 0 0 2.563-13.052 108.7 108.7 0 0 0 .297-27.855c-.629-4.73-1.43-9.597-2.803-14.362-.6-2.38-1.401-4.73-2.207-7.115-.349-1.19-.858-2.328-1.305-3.489-.48-1.161-.892-2.385-1.429-3.512-1.047-2.288-2.088-4.621-3.306-6.823-.601-1.133-1.139-2.288-1.825-3.364l-1.968-3.311c-2.705-4.319-5.685-8.58-9.048-12.538-1.602-2.059-3.432-3.935-5.188-5.874-1.847-1.841-3.66-3.78-5.628-5.502a114 114 0 0 0-12.486-9.987c-8.877-6.165-18.491-10.936-28.627-14.802-1.252-.51-2.534-.927-3.815-1.373-1.281-.417-2.528-.892-3.809-1.281-2.597-.744-5.119-1.579-7.71-2.208-1.316-.291-2.597-.617-3.907-.95l-3.872-.806-1.967-.412-1.939-.325-3.895-.63a145.3 145.3 0 0 0-31.081-1.132l-3.832.354-1.91.184-1.882.268a317 317 0 0 0-3.781.567c-1.253.171-2.442.446-3.66.652-1.224.24-2.414.474-3.638.686q-1.785.441-3.569.84c-1.201.258-2.391.556-3.546.824q-1.773.465-3.518.956a189 189 0 0 0-26.539 9.414c-16.776 7.321-31.55 16.267-44.63 25.441a355 355 0 0 0-18.4 13.859 447 447 0 0 0-16.147 13.613A704 704 0 0 0 35.5 107.34a1277 1277 0 0 0-19.093 19.241c-5.124 5.36-9.151 9.501-11.862 12.298a936 936 0 0 1-4.107 4.329" fill="#737373"/>
  </g>
</svg>
